<svg width="512" height="512" viewBox="0 0 512 512" fill="none" xmlns="http://www.w3.org/2000/svg">
  <defs>
    <radialGradient id="nodeLight" cx="35%" cy="28%" r="70%">
      <stop stop-color="#F2E4FF"/>
      <stop offset="0.34" stop-color="#B678FF"/>
      <stop offset="1" stop-color="#2D1975"/>
    </radialGradient>
    <radialGradient id="nodeDark" cx="35%" cy="28%" r="70%">
      <stop stop-color="#7364FF"/>
      <stop offset="0.42" stop-color="#322099"/>
      <stop offset="1" stop-color="#05051E"/>
    </radialGradient>
    <linearGradient id="tube" x1="82" y1="82" x2="430" y2="430" gradientUnits="userSpaceOnUse">
      <stop stop-color="#D2A2FF"/>
      <stop offset="0.52" stop-color="#6847E8"/>
      <stop offset="1" stop-color="#160C4A"/>
    </linearGradient>
    <linearGradient id="tubeSoft" x1="96" y1="416" x2="416" y2="96" gradientUnits="userSpaceOnUse">
      <stop stop-color="#E8C5FF"/>
      <stop offset="1" stop-color="#7D52F2"/>
    </linearGradient>
    <filter id="softGlow" x="16" y="16" width="480" height="480" filterUnits="userSpaceOnUse" color-interpolation-filters="sRGB">
      <feDropShadow dx="0" dy="0" stdDeviation="8" flood-color="#9E62FF" flood-opacity="0.42"/>
      <feDropShadow dx="0" dy="10" stdDeviation="12" flood-color="#25105C" flood-opacity="0.22"/>
    </filter>
  </defs>

  <g filter="url(#softGlow)" stroke-linecap="round" stroke-linejoin="round">
    <circle cx="256" cy="256" r="176" stroke="url(#tubeSoft)" stroke-width="15" opacity="0.72"/>
    <circle cx="256" cy="256" r="124" stroke="url(#tube)" stroke-width="13" opacity="0.9"/>
    <path d="M256 82L364 126L430 224L406 334L316 414H196L106 334L82 224L148 126L256 82Z" stroke="url(#tube)" stroke-width="12"/>
    <path d="M148 126L212 162L300 162L364 126" stroke="url(#tubeSoft)" stroke-width="9" opacity="0.92"/>
    <path d="M82 224L168 214L220 256L168 298L106 334" stroke="url(#tube)" stroke-width="11"/>
    <path d="M430 224L344 214L292 256L344 298L406 334" stroke="url(#tube)" stroke-width="11"/>
    <path d="M196 414L220 350L256 318L292 350L316 414" stroke="url(#tubeSoft)" stroke-width="10"/>
    <path d="M212 162L220 256L220 350" stroke="url(#tube)" stroke-width="10"/>
    <path d="M300 162L292 256L292 350" stroke="url(#tube)" stroke-width="10"/>
    <path d="M168 214L212 162L256 126L300 162L344 214" stroke="url(#tube)" stroke-width="10"/>
    <path d="M168 298L220 350L256 386L292 350L344 298" stroke="url(#tube)" stroke-width="10"/>
    <path d="M220 256H292" stroke="url(#tubeSoft)" stroke-width="10"/>
  </g>

  <g>
    <circle cx="256" cy="82" r="19" fill="url(#nodeLight)"/>
    <circle cx="148" cy="126" r="21" fill="url(#nodeLight)"/>
    <circle cx="364" cy="126" r="21" fill="url(#nodeDark)"/>
    <circle cx="82" cy="224" r="22" fill="url(#nodeDark)"/>
    <circle cx="430" cy="224" r="22" fill="url(#nodeLight)"/>
    <circle cx="106" cy="334" r="21" fill="url(#nodeDark)"/>
    <circle cx="406" cy="334" r="21" fill="url(#nodeDark)"/>
    <circle cx="196" cy="414" r="21" fill="url(#nodeLight)"/>
    <circle cx="316" cy="414" r="21" fill="url(#nodeDark)"/>
    <circle cx="256" cy="430" r="20" fill="url(#nodeLight)"/>
    <circle cx="212" cy="162" r="18" fill="url(#nodeLight)"/>
    <circle cx="300" cy="162" r="18" fill="url(#nodeLight)"/>
    <circle cx="256" cy="126" r="19" fill="url(#nodeDark)"/>
    <circle cx="168" cy="214" r="19" fill="url(#nodeDark)"/>
    <circle cx="344" cy="214" r="19" fill="url(#nodeDark)"/>
    <circle cx="220" cy="256" r="18" fill="url(#nodeDark)"/>
    <circle cx="292" cy="256" r="18" fill="url(#nodeLight)"/>
    <circle cx="168" cy="298" r="18" fill="url(#nodeLight)"/>
    <circle cx="344" cy="298" r="18" fill="url(#nodeLight)"/>
    <circle cx="220" cy="350" r="19" fill="url(#nodeDark)"/>
    <circle cx="292" cy="350" r="19" fill="url(#nodeDark)"/>
    <circle cx="256" cy="386" r="18" fill="url(#nodeLight)"/>
    <circle cx="256" cy="256" r="20" fill="url(#nodeLight)"/>
  </g>
</svg>
